[FRAME]
media_type=video
stream_index=0
key_frame=1
pts=0
pts_time=0.000000
pkt_dts=0
pkt_dts_time=0.000000
best_effort_timestamp=0
best_effort_timestamp_time=0.000000
pkt_duration=1
pkt_duration_time=0.040000
duration=1
duration_time=0.040000
pkt_pos=32
pkt_size=4485
width=320
height=240
crop_top=0
crop_bottom=0
crop_left=0
crop_right=0
pix_fmt=yuv420p10le
sample_aspect_ratio=1:1
pict_type=I
coded_picture_number=0
display_picture_number=0
interlaced_frame=0
top_field_first=0
repeat_pict=0
color_range=tv
color_space=unknown
color_primaries=unknown
color_transfer=unknown
chroma_location=unspecified
[SIDE_DATA]
side_data_type=Film grain parameters
[/SIDE_DATA]
[/FRAME]
[FRAME]
media_type=video
stream_index=0
key_frame=0
pts=1
pts_time=0.040000
pkt_dts=1
pkt_dts_time=0.040000
best_effort_timestamp=1
best_effort_timestamp_time=0.040000
pkt_duration=1
pkt_duration_time=0.040000
duration=1
duration_time=0.040000
pkt_pos=4529
pkt_size=1310
width=320
height=240
crop_top=0
crop_bottom=0
crop_left=0
crop_right=0
pix_fmt=yuv420p10le
sample_aspect_ratio=1:1
pict_type=P
coded_picture_number=0
display_picture_number=0
interlaced_frame=0
top_field_first=0
repeat_pict=0
color_range=tv
color_space=unknown
color_primaries=unknown
color_transfer=unknown
chroma_location=unspecified
[SIDE_DATA]
side_data_type=Film grain parameters
[/SIDE_DATA]
[/FRAME]
[FRAME]
media_type=video
stream_index=0
key_frame=0
pts=2
pts_time=0.080000
pkt_dts=2
pkt_dts_time=0.080000
best_effort_timestamp=2
best_effort_timestamp_time=0.080000
pkt_duration=1
pkt_duration_time=0.040000
duration=1
duration_time=0.040000
pkt_pos=5851
pkt_size=5
width=320
height=240
crop_top=0
crop_bottom=0
crop_left=0
crop_right=0
pix_fmt=yuv420p10le
sample_aspect_ratio=1:1
pict_type=P
coded_picture_number=0
display_picture_number=0
interlaced_frame=0
top_field_first=0
repeat_pict=0
color_range=tv
color_space=unknown
color_primaries=unknown
color_transfer=unknown
chroma_location=unspecified
[SIDE_DATA]
side_data_type=Film grain parameters
[/SIDE_DATA]
[/FRAME]
[FRAME]
media_type=video
stream_index=0
key_frame=0
pts=3
pts_time=0.120000
pkt_dts=3
pkt_dts_time=0.120000
best_effort_timestamp=3
best_effort_timestamp_time=0.120000
pkt_duration=1
pkt_duration_time=0.040000
duration=1
duration_time=0.040000
pkt_pos=5868
pkt_size=147
width=320
height=240
crop_top=0
crop_bottom=0
crop_left=0
crop_right=0
pix_fmt=yuv420p10le
sample_aspect_ratio=1:1
pict_type=P
coded_picture_number=0
display_picture_number=0
interlaced_frame=0
top_field_first=0
repeat_pict=0
color_range=tv
color_space=unknown
color_primaries=unknown
color_transfer=unknown
chroma_location=unspecified
[SIDE_DATA]
side_data_type=Film grain parameters
[/SIDE_DATA]
[/FRAME]
[FRAME]
media_type=video
stream_index=0
key_frame=0
pts=4
pts_time=0.160000
pkt_dts=4
pkt_dts_time=0.160000
best_effort_timestamp=4
best_effort_timestamp_time=0.160000
pkt_duration=1
pkt_duration_time=0.040000
duration=1
duration_time=0.040000
pkt_pos=6027
pkt_size=5
width=320
height=240
crop_top=0
crop_bottom=0
crop_left=0
crop_right=0
pix_fmt=yuv420p10le
sample_aspect_ratio=1:1
pict_type=P
coded_picture_number=0
display_picture_number=0
interlaced_frame=0
top_field_first=0
repeat_pict=0
color_range=tv
color_space=unknown
color_primaries=unknown
color_transfer=unknown
chroma_location=unspecified
[SIDE_DATA]
side_data_type=Film grain parameters
[/SIDE_DATA]
[/FRAME]
[FRAME]
media_type=video
stream_index=0
key_frame=0
pts=5
pts_time=0.200000
pkt_dts=5
pkt_dts_time=0.200000
best_effort_timestamp=5
best_effort_timestamp_time=0.200000
pkt_duration=1
pkt_duration_time=0.040000
duration=1
duration_time=0.040000
pkt_pos=6044
pkt_size=303
width=320
height=240
crop_top=0
crop_bottom=0
crop_left=0
crop_right=0
pix_fmt=yuv420p10le
sample_aspect_ratio=1:1
pict_type=P
coded_picture_number=0
display_picture_number=0
interlaced_frame=0
top_field_first=0
repeat_pict=0
color_range=tv
color_space=unknown
color_primaries=unknown
color_transfer=unknown
chroma_location=unspecified
[SIDE_DATA]
side_data_type=Film grain parameters
[/SIDE_DATA]
[/FRAME]
[FRAME]
media_type=video
stream_index=0
key_frame=0
pts=6
pts_time=0.240000
pkt_dts=6
pkt_dts_time=0.240000
best_effort_timestamp=6
best_effort_timestamp_time=0.240000
pkt_duration=1
pkt_duration_time=0.040000
duration=1
duration_time=0.040000
pkt_pos=6359
pkt_size=5
width=320
height=240
crop_top=0
crop_bottom=0
crop_left=0
crop_right=0
pix_fmt=yuv420p10le
sample_aspect_ratio=1:1
pict_type=P
coded_picture_number=0
display_picture_number=0
interlaced_frame=0
top_field_first=0
repeat_pict=0
color_range=tv
color_space=unknown
color_primaries=unknown
color_transfer=unknown
chroma_location=unspecified
[SIDE_DATA]
side_data_type=Film grain parameters
[/SIDE_DATA]
[/FRAME]
[FRAME]
media_type=video
stream_index=0
key_frame=0
pts=7
pts_time=0.280000
pkt_dts=7
pkt_dts_time=0.280000
best_effort_timestamp=7
best_effort_timestamp_time=0.280000
pkt_duration=1
pkt_duration_time=0.040000
duration=1
duration_time=0.040000
pkt_pos=6376
pkt_size=154
width=320
height=240
crop_top=0
crop_bottom=0
crop_left=0
crop_right=0
pix_fmt=yuv420p10le
sample_aspect_ratio=1:1
pict_type=P
coded_picture_number=0
display_picture_number=0
interlaced_frame=0
top_field_first=0
repeat_pict=0
color_range=tv
color_space=unknown
color_primaries=unknown
color_transfer=unknown
chroma_location=unspecified
[SIDE_DATA]
side_data_type=Film grain parameters
[/SIDE_DATA]
[/FRAME]
[FRAME]
media_type=video
stream_index=0
key_frame=0
pts=8
pts_time=0.320000
pkt_dts=8
pkt_dts_time=0.320000
best_effort_timestamp=8
best_effort_timestamp_time=0.320000
pkt_duration=1
pkt_duration_time=0.040000
duration=1
duration_time=0.040000
pkt_pos=6542
pkt_size=5
width=320
height=240
crop_top=0
crop_bottom=0
crop_left=0
crop_right=0
pix_fmt=yuv420p10le
sample_aspect_ratio=1:1
pict_type=P
coded_picture_number=0
display_picture_number=0
interlaced_frame=0
top_field_first=0
repeat_pict=0
color_range=tv
color_space=unknown
color_primaries=unknown
color_transfer=unknown
chroma_location=unspecified
[SIDE_DATA]
side_data_type=Film grain parameters
[/SIDE_DATA]
[/FRAME]
[FRAME]
media_type=video
stream_index=0
key_frame=0
pts=9
pts_time=0.360000
pkt_dts=9
pkt_dts_time=0.360000
best_effort_timestamp=9
best_effort_timestamp_time=0.360000
pkt_duration=1
pkt_duration_time=0.040000
duration=1
duration_time=0.040000
pkt_pos=6559
pkt_size=256
width=320
height=240
crop_top=0
crop_bottom=0
crop_left=0
crop_right=0
pix_fmt=yuv420p10le
sample_aspect_ratio=1:1
pict_type=P
coded_picture_number=0
display_picture_number=0
interlaced_frame=0
top_field_first=0
repeat_pict=0
color_range=tv
color_space=unknown
color_primaries=unknown
color_transfer=unknown
chroma_location=unspecified
[SIDE_DATA]
side_data_type=Film grain parameters
[/SIDE_DATA]
[/FRAME]
